{"title":"Fast &amp; Furious 7 2015 EXTENDED 1080p BRRip X264 AC3 DUAL","uid":12168303,"size":5316774174,"categoryP":"video","categoryS":"hd___movies","magnet":"?xt=urn:btih:1b784bd2d5d4b7d0713cb7af1fc16a5bdf51075b&amp;dn=Fast+%26amp%3B+Furious+7+2015+EXTENDED+1080p+BRRip+X264+AC3+DUAL&amp;tr=udp%3A%2F%2Ftracker.openbittorrent.com%3A80&amp;tr=udp%3A%2F%2Fopen.demonii.com%3A1337&amp;tr=udp%3A%2F%2Ftracker.coppersurfer.tk%3A6969&amp;tr=udp%3A%2F%2Fexodus.desync.com%3A6969","seeders":17,"leechers":18,"uploader":"Alemao99","files":4,"time":1438090047,"description":"After the events in London, Dom (Vin Diesel), Brian (Paul Walker), Letty (Michelle Rodriguez) and the rest of the team had a chance to return to the United States and restarting their lives. But the tranquility of the group is destroyed when Ian Shaw (Jason Statham), a professional killer, wants revenge for the death of his brother. Now the team has to come together to prevent this new villain. But this time, it is not only about being fast. The fight is for survival.\n\nTitle in Brazil: Fast &amp; Furious 7 - Extended Version\nOriginal title: Furious 7: Extended\nRelease Date: 2015\nGenre: Action\nDuration: 139 min\nDirector: James Wan\nIMDB: http://www.imdb.com/title/tt2820852/\n\nSize: 4.95 GB\nExtension Archive: .MKV\nVideo Quality: Blu-Ray (BRRip)\nVideo codec: H.264 / AVC\nAudio codec: AC3 5.1\nResolution: 1280 x 696\nAudio: Portuguese / English\nSubtitles: Portuguese\n\n\nFormat                                   : Matroska\nFormat version                           : Version 4 / Version 2\nFile size                                : 4.95 GiB\nDuration                                 : 2h 19mn\nOverall bit rate                         : 5 067 Kbps\nMovie name                               : EVO\nEncoded date                             : UTC 2015-07-22 19:20:20\nWriting application                      : mkvmerge v7.6.0 ('Garden of Dreams') 32bit built on Feb  8 2015 12:51:39\nWriting library                          : libebml v1.3.1 + libmatroska v1.4.2\nDURATION                                 : 02:19:54.848000000\nNUMBER_OF_FRAMES                         : 262339\nNUMBER_OF_BYTES                          : 470111488\n_STATISTICS_WRITING_APP                  : mkvmerge v7.6.0 ('Garden of Dreams') 32bit built on Feb  8 2015 12:51:39\n_STATISTICS_WRITING_DATE_UTC             : 2015-07-22 19:20:20\n_STATISTICS_TAGS                         : BPS DURATION NUMBER_OF_FRAMES NUMBER_OF_BYTES\n\nVideo\nID                                       : 2\nFormat                                   : AVC\nFormat/Info                              : Advanced Video Codec\nFormat profile                           : &lt;a class=&quot;__cf_email__&quot; href=&quot;/cdn-cgi/l/email-protection&quot; data-cfemail=&quot;470f2e202f070b736976&quot;&gt;[email&amp;#160;protected]&lt;/a&gt;&lt;script data-cfhash='f9e31' type=&quot;text/javascript&quot;&gt;\n/* &lt;![CDATA[ */!function(){try{var t=&quot;currentScript&quot;in document?document.currentScript:function(){for(var t=document.getElementsByTagName(&quot;script&quot;),e=t.length;e--;)if(t[e].getAttribute(&quot;data-cfhash&quot;))return t[e]}();if(t&amp;&amp;t.previousSibling){var e,r,n,i,c=t.previousSibling,a=c.getAttribute(&quot;data-cfemail&quot;);if(a){for(e=&quot;&quot;,r=parseInt(a.substr(0,2),16),n=2;a.length-n;n+=2)i=parseInt(a.substr(n,2),16)^r,e+=String.fromCharCode(i);e=document.createTextNode(e),c.parentNode.replaceChild(e,c)}t.parentNode.removeChild(t);}}catch(u){}}()/* ]]&gt; */&lt;/script&gt;\nFormat settings, CABAC                   : Yes\nFormat settings, ReFrames                : 4 frames\nCodec ID                                 : V_MPEG4/ISO/AVC\nDuration                                 : 2h 19mn\nBit rate                                 : 4 236 Kbps\nWidth                                    : 1 920 pixels\nHeight                                   : 800 pixels\nDisplay aspect ratio                     : 2.40:1\nFrame rate mode                          : Variable\nFrame rate                               : 23.976 fps\nColor space                              : YUV\nChroma subsampling                       : 4:2:0\nBit depth                                : 8 bits\nScan type                                : Progressive\nBits/(Pixel*Frame)                       : 0.115\nStream size                              : 3.98 GiB (80%)\nWriting library                          : x264 core 130 r2273 b3065e6\nEncoding settings                        : cabac=1 / ref=3 / deblock=1:0:0 / analyse=0x3:0x113 / me=hex / subme=7 / psy=1 / psy_rd=1.00:0.00 / mixed_ref=1 / me_range=16 / chroma_me=1 / trellis=1 / 8x8dct=1 / cqm=0 / deadzone=21,11 / fast_pskip=1 / chroma_qp_offset=-2 / threads=6 / lookahead_threads=1 / sliced_threads=0 / nr=0 / decimate=1 / interlaced=0 / bluray_compat=0 / constrained_intra=0 / bframes=3 / b_pyramid=2 / b_adapt=1 / b_bias=0 / direct=1 / weightb=1 / open_gop=0 / weightp=2 / keyint=240 / keyint_min=24 / scenecut=40 / intra_refresh=0 / rc_lookahead=40 / rc=abr / mbtree=1 / bitrate=4236 / ratetol=1.0 / qcomp=0.60 / qpmin=0 / qpmax=69 / qpstep=4 / vbv_maxrate=62500 / vbv_bufsize=78125 / nal_hrd=none / ip_ratio=1.40 / aq=1:1.00\nLanguage                                 : English\nDefault                                  : Yes\nForced                                   : No\nColor primaries                          : BT.709-5, BT.1361, IEC 61966-2-4, SMPTE RP177\nTransfer characteristics                 : BT.709-5, BT.1361\nMatrix coefficients                      : BT.709-5, BT.1361, IEC 61966-2-4 709, SMPTE RP177\n\nAudio #1\nID                                       : 1\nFormat                                   : AC-3\nFormat/Info                              : Audio Coding 3\nMode extension                           : CM (complete main)\nFormat settings, Endianness              : Big\nCodec ID                                 : A_AC3\nDuration                                 : 2h 19mn\nBit rate mode                            : Constant\nBit rate                                 : 448 Kbps\nChannel(s)                               : 6 channels\nChannel positions                        : Front: L C R, Side: L R, LFE\nSampling rate                            : 48.0 KHz\nBit depth                                : 16 bits\nCompression mode                         : Lossy\nStream size                              : 448 MiB (9%)\nLanguage                                 : Portuguese\nDefault                                  : Yes\nForced                                   : No\n\nAudio #2\nID                                       : 3\nFormat                                   : AC-3\nFormat/Info                              : Audio Coding 3\nMode extension                           : CM (complete main)\nFormat settings, Endianness              : Big\nCodec ID                                 : A_AC3\nDuration                                 : 2h 19mn\nBit rate mode                            : Constant\nBit rate                                 : 448 Kbps\nChannel(s)                               : 6 channels\nChannel positions                        : Front: L C R, Side: L R, LFE\nSampling rate                            : 48.0 KHz\nBit depth                                : 16 bits\nCompression mode                         : Lossy\nStream size                              : 448 MiB (9%)\nLanguage                                 : English\nDefault                                  : No\nForced                                   : No","torrent":{"xt":"urn:btih:1b784bd2d5d4b7d0713cb7af1fc16a5bdf51075b","amp;dn":"Fast+%26amp%3B+Furious+7+2015+EXTENDED+1080p+BRRip+X264+AC3+DUAL","amp;tr":["udp%3A%2F%2Ftracker.openbittorrent.com%3A80","udp%3A%2F%2Fopen.demonii.com%3A1337","udp%3A%2F%2Ftracker.coppersurfer.tk%3A6969","udp%3A%2F%2Fexodus.desync.com%3A6969"],"infoHash":"1b784bd2d5d4b7d0713cb7af1fc16a5bdf51075b","infoHashBuffer":{"type":"Buffer","data":[27,120,75,210,213,212,183,208,113,60,183,175,31,193,106,91,223,81,7,91]},"announce":[],"urlList":[]}}